<svg xmlns="http://www.w3.org/2000/svg" width="960" height="540" viewBox="0 0 960 540" role="img" aria-labelledby="title desc">
  <title id="title">Corn Agent Dashboard Multica-style preview</title>
  <desc id="desc">A compact dark dashboard preview with sidebar, header, issue cards and neutral token surfaces.</desc>
  <rect width="960" height="540" fill="#232327"/>
  <rect x="0" y="0" width="256" height="540" fill="#2a2a2f"/>
  <rect x="256" y="0" width="704" height="48" fill="#232327" stroke="rgba(255,255,255,.10)"/>
  <circle cx="32" cy="30" r="14" fill="#7da2ff"/>
  <text x="56" y="27" fill="#f4f4f5" font-family="Inter, sans-serif" font-size="14" font-weight="600">Corn Agent</text>
  <text x="56" y="43" fill="#aaaab1" font-family="Inter, sans-serif" font-size="11">Local dashboard</text>
  <text x="20" y="88" fill="#85858d" font-family="Inter, sans-serif" font-size="10" font-weight="700" letter-spacing="1.4">PRODUCT</text>
  <rect x="12" y="102" width="232" height="32" rx="8" fill="#35353b"/>
  <text x="28" y="123" fill="#f4f4f5" font-family="Inter, sans-serif" font-size="13" font-weight="500">홈</text>
  <text x="20" y="168" fill="#85858d" font-family="Inter, sans-serif" font-size="10" font-weight="700" letter-spacing="1.4">WORKSPACE</text>
  <text x="28" y="204" fill="#c9c9d1" font-family="Inter, sans-serif" font-size="13">이슈 보드</text>
  <text x="28" y="238" fill="#c9c9d1" font-family="Inter, sans-serif" font-size="13">에이전트</text>
  <text x="28" y="272" fill="#c9c9d1" font-family="Inter, sans-serif" font-size="13">오토파일럿</text>
  <text x="280" y="30" fill="#aaaab1" font-family="Inter, sans-serif" font-size="12">워크스페이스 / news</text>
  <text x="402" y="30" fill="#f4f4f5" font-family="Inter, sans-serif" font-size="14" font-weight="600">이슈 보드</text>
  <g transform="translate(280 76)">
    <rect width="190" height="112" rx="10" fill="#2a2a2f" stroke="rgba(255,255,255,.10)"/>
    <text x="14" y="25" fill="#aaaab1" font-family="Geist Mono, monospace" font-size="11">NEWS-12</text>
    <text x="14" y="52" fill="#f4f4f5" font-family="Inter, sans-serif" font-size="14" font-weight="600">오늘 뉴스 정리</text>
    <rect x="14" y="72" width="58" height="20" rx="10" fill="rgba(125,162,255,.14)"/>
    <text x="28" y="86" fill="#9fb7ff" font-family="Inter, sans-serif" font-size="11">running</text>
  </g>
  <g transform="translate(490 76)">
    <rect width="190" height="112" rx="10" fill="#2a2a2f" stroke="rgba(255,255,255,.10)"/>
    <text x="14" y="25" fill="#aaaab1" font-family="Geist Mono, monospace" font-size="11">NEWS-11</text>
    <text x="14" y="52" fill="#f4f4f5" font-family="Inter, sans-serif" font-size="14" font-weight="600">결과 Markdown 검토</text>
    <rect x="14" y="72" width="44" height="20" rx="10" fill="rgba(64,205,128,.14)"/>
    <text x="26" y="86" fill="#74dfa0" font-family="Inter, sans-serif" font-size="11">done</text>
  </g>
  <rect x="280" y="220" width="610" height="170" rx="10" fill="#2a2a2f" stroke="rgba(255,255,255,.10)"/>
  <text x="300" y="252" fill="#f4f4f5" font-family="Inter, sans-serif" font-size="14" font-weight="600">새 이슈</text>
  <rect x="300" y="272" width="550" height="34" rx="8" fill="#232327" stroke="rgba(255,255,255,.14)"/>
  <rect x="300" y="318" width="550" height="42" rx="8" fill="#232327" stroke="rgba(255,255,255,.14)"/>
  <rect x="300" y="374" width="86" height="32" rx="8" fill="#f4f4f5"/>
  <text x="321" y="395" fill="#2a2a2f" font-family="Inter, sans-serif" font-size="13" font-weight="600">이슈 생성</text>
</svg>
